<?xml version="1.0" encoding="UTF-8"?>
<!DOCTYPE svg PUBLIC "-//W3C//DTD SVG 1.1//EN" "http://www.w3.org/Graphics/SVG/1.1/DTD/svg11.dtd">
<!-- Creator: CorelDRAW -->
<svg xmlns="http://www.w3.org/2000/svg" xml:space="preserve" width="49.3268mm" height="33.2393mm" version="1.1" style="shape-rendering:geometricPrecision; text-rendering:geometricPrecision; image-rendering:optimizeQuality; fill-rule:evenodd; clip-rule:evenodd"
viewBox="0 0 802.93 541.06"
 xmlns:xlink="http://www.w3.org/1999/xlink"
 xmlns:xodm="http://www.corel.com/coreldraw/odm/2003">
 <defs>
  <style type="text/css">
   <![CDATA[
    .fil0 {fill:#ADFF00}
   ]]>
  </style>
 </defs>
 <g id="Camada_x0020_1">
  <metadata id="CorelCorpID_0Corel-Layer"/>
  <path class="fil0" d="M633.41 30.86l-3.31 2.48c-5.36,1.25 -3.01,3.28 -8.65,3.25 -0.08,0 -0.31,-0.03 -0.4,-0.03 -0.18,0.01 -0.69,0.1 -0.89,0.15 -1.47,0.4 -1.82,1.05 -4.12,1.59 1.03,-2.41 1.51,-0.96 -0.83,-1.65 1.28,-1.74 2.34,-2.11 4.13,-3.31 0.88,0.56 -0.38,1.03 3.07,0.66 0.76,-0.08 2.89,-0.99 3.68,-1.33 2.52,-1.08 3.93,-2.04 6.48,-2.64l0.83 0.83zm-218.3 92.61l-0.83 0.83 -0.83 0.83 -0.83 0.83 -0.83 0.83 -0.83 0.83c-2.72,0.72 -2.63,0.48 -3.31,3.31l-0.83 0 0.69 0.97 0.14 -0.97c2.94,-1.55 2.38,0.15 3.31,-3.31l0.83 -0.83 0.83 -0.83 0.83 -0.83 0.83 -0.83 0.83 -0.83 0.83 -0.83 0.83 -0.83c3.11,-0.83 1.7,-0.75 4.01,-2.61 3.1,-2.5 1.46,-0.29 3.43,-4.01 -2.93,0.78 -5.75,4.09 -7.44,6.62l-0.83 0.83 -0.83 0.83zm291.9 -77.73l0 -0.83 0.83 0 -0.69 -0.97 -0.14 0.97 0 0.83 -3.39 1.58c-1.54,0.55 -2.7,0.92 -4.4,1.44l-7.92 1.95c0.15,-0.13 0.41,-0.49 0.49,-0.34l3.65 -2.97c-4.02,0.94 -4.81,2.95 -9.1,3.31 -0.6,-0.35 -0.59,-0.82 -3.8,0.21 -4.24,1.37 -7.83,3.6 -12.74,4.75 2.21,-3.3 2.18,-2.07 6.28,-3.65l6.95 -3.8c6.75,-0.56 23.16,-10.57 31.42,-10.75l0 -1.65c-7.58,0.63 -10.12,4.05 -16.04,5.46 -2.41,0.57 -1.9,0.02 -3.97,0.99 -1.45,0.68 -1.61,1.17 -3.84,1.94 -2.64,0.91 -3.41,0.79 -5.77,2.5l-1.8 1.51 -4.13 0c7.31,-6.35 10.57,-4.64 13.23,-8.27l-4.96 0c2.17,-8.13 5.98,1.03 6.62,-6.62 -3.06,0.71 -2.31,1.36 -5.79,1.65 0.2,-0.19 0.66,-0.79 0.77,-0.92 0.08,-0.09 0.28,-0.35 0.39,-0.46 2.74,-2.72 1.49,-1.36 3.45,-1.58 1.36,-0.15 1.34,1.54 3.63,-1.97 0.48,-0.74 0.38,-0.39 0.85,-1.69 -3.24,1.55 -4.07,0.92 -5.07,1.17 -5.39,1.36 1.5,1.07 -7.17,2.75 -1.45,0.28 -1.74,0.5 -2.76,0.92 -3.58,1.46 -2.36,1.65 -5.67,0.95 -1.44,-1.26 -1.03,-1.12 -3.31,-1.65l6.73 -3.2c2.34,-0.95 -1.21,-0.57 3.2,-0.94l-1.65 1.65c2.56,-0.22 1.56,0.01 3.31,-0.83l0 1.65c3.6,-0.84 4.67,-2.47 8.27,-3.31 -1.06,-3.2 0.11,-0.99 -4.13,0 2.96,-5.59 0.8,-1.74 5.79,-4.13 1.05,1.9 -1.62,-0.02 1.06,1.72 1.56,1.01 1.07,1.14 3.32,0.25 3.61,-1.43 0.66,-1.47 3.05,-2.92 0.19,-0.12 1.28,-0.52 1.67,-0.7 1.11,0.84 -1.74,0.83 2.48,0.83l0 -0.83 -2.48 0 -4.96 0c2.23,-2.03 0.66,0.19 1.65,-2.48 -4.62,1.08 -6.81,2.75 -11.22,4.49l-22.44 8.98c-3.16,1.24 -8.61,3.62 -11.82,3.89l-1.49 -0.34c-2.4,0.12 -2.32,0.48 -3.71,1.72l-4.58 2.96c-1.14,0.41 -1.06,0.45 -2.3,0.7l-2.65 0.31c-0.13,0.04 -0.37,0.12 -0.5,0.17l-4.62 2.74c0.95,-2.62 4.03,-4.36 6.62,-4.96l0.83 0 1.78 -0.45 -1.78 -0.37 -1.65 -2.48c-2.19,0.58 -0.68,-0.07 -2.48,0.83 -0.67,2.16 -0.46,-1.44 0.48,0.68 0.87,1.96 1.07,-2.18 0.21,0.72 -0,0 -2.49,2.47 -2.52,2.49 -2.51,1.95 -4.75,2.77 -8.1,3.55l-1.61 -0.95 1.61 0.95 -5.77 3.34c0.74,-3.6 1.98,-2.19 -1.67,-2.51 4.08,-3.55 16.43,-9.76 20.67,-10.75 -0.33,-0.9 -3.66,-2.8 2.48,-3.31 -1.41,2.51 -0.44,0.93 0,1.65l21.47 -8.3c1.31,-0.71 0.32,-0.21 1.58,-0.9l5.06 -3.21c0.51,0.32 -1.32,1.47 2.16,0.57 1.93,-0.5 1.72,-1.18 1.98,-1.4 -2.23,0.19 -2.25,0.39 -4.13,0.83 -1.12,-0.69 0.28,-0.44 -1.59,-0.43 -1.7,0 -0.11,-0.11 -1.77,0.26 -3.04,0.68 -0.13,0.67 -4.08,1 0.15,-0.13 0.41,-0.49 0.49,-0.34l1.47 -1.01c1.99,-1.49 0.25,0.69 2.18,-1.95 -5.05,0.42 -18.9,7 -26.15,9.41 -2.72,0.9 -7.41,2.03 -9.41,2.99l-0.83 -0.83c2.17,-2.96 0.98,-0.63 3.38,-2.53 1.76,-1.4 1.52,-0.92 -0.07,-2.43l2.48 0 1.61 0.95c2.54,-6.26 5.78,-1.86 10.79,-4.26 -1.86,-2.54 0.44,-0.7 -2.93,-1.75l-2.5 -0.32c-0.51,0.08 -6.2,2.59 -6.95,2.92 -19.13,8.4 -22.83,10.62 -41.37,20.65 -18.27,9.88 -4.35,3.35 -20.98,8.79l-11.3 4.41c-2.41,1.12 -1.26,0.36 -3.88,1.09 -3.73,1.04 -6.57,3.89 -9.67,6.11 -0.41,0.3 -1.28,0.84 -1.41,0.91 -2.06,1.01 -1.5,-0.07 -4.32,1.5 -2.53,1.41 -0.97,1.24 -3.84,2.01 4.6,-6.86 12.04,-6.29 13.23,-10.75 -6.16,1.44 -16.68,10.85 -21.4,13.55 -2.42,1.39 -1.77,2.13 -2.58,-0.32 2.39,-0.64 5.32,-3.79 9.08,-6.63l5.61 -3.24c3.05,-2.63 -2.73,-1.08 2.68,-2.53l0.83 0 0 -0.83c1.27,-1.73 1.67,-1.64 3.62,-3 2.38,-1.66 2.12,-2.11 4.65,-2.79l0 0.83 -0.83 0 0.69 0.97 0.14 -0.97c2.36,-0.56 1.24,0.13 2.48,-1.65 6.91,-1.85 -2.78,-1.46 4.13,-3.31l-0.9 1.61c2.3,-0.14 2.32,-0.34 4.2,-0.78l0 -1.65 -1.65 0c1.6,-1.4 1.78,-1.85 4.13,-2.48l0 1.65 3.31 -0.83c-2.72,3.71 -3.8,0.6 -4.96,4.96 -4.77,0.4 -6.72,1.45 -7.44,4.13l2.14 -0.14c3.56,0.65 -0.06,0.56 5.3,-0.69l-1.65 -1.65 1.24 -1.24c0.08,-0.08 0.27,-0.28 0.41,-0.41 2.49,-1.32 6.22,-3.46 9.1,-4.13 0.13,0.13 0.4,0.11 0.43,0.35 0.2,1.46 1.2,-0.82 0.4,2.96 2.89,-0.77 1.86,-0.31 3.31,-2.48 -2.15,-0.57 -0.92,0.31 -1.65,-1.65 -2.19,0.58 -0.68,-0.07 -2.48,0.83 0.43,-1.6 0.15,-1.28 0.83,-2.48l-1.65 0c1.7,-1.48 1.24,-1.41 4.13,-1.65l-0.9 1.61c4.11,-0.29 9.9,-3.97 11.65,-6.57 -4.37,1.02 -7.24,4.03 -10.75,4.96 2.36,-3.53 3.33,-3.19 7.08,-5.32l2.72 -2.24c1.58,-1.81 0.6,-1.5 4.24,-3.2 2.44,-1.14 3.44,-1.19 4.98,-3.29 2.34,0.7 1.86,-0.76 0.83,1.65l-0.83 0 0.69 0.97 0.14 -0.97c1.6,-0.43 1.28,-0.15 2.48,-0.83 -1.05,-2.53 1.16,-1.55 -1.65,-2.48 -2.44,-1.42 -9.93,4.44 -15.71,5.79 0.44,-5.02 -0.94,-0.52 3.31,-2.48 -1.12,-2.7 0.69,-1.09 -1.65,-3.31 1.87,-0.75 1.18,-0.27 2.25,-1.89 1.23,-1.87 0.72,0.06 1.06,-3.07 -5.04,2.66 -1.87,1.47 -3.31,4.96l-2.48 0 -11.24 3.6c-1.34,1.36 -0.53,0.18 0.49,3.02 -7.39,0 -3.95,-0.99 -14.44,3.76 -3.52,1.6 -1.87,0.91 -4.46,2.98 -1.56,1.25 -2.39,1.51 -4.13,2.49 -2.07,1.16 -2.26,1.51 -4.05,3.39 -4.8,5.04 -2.79,3.24 -9.31,3.1 -1.34,3.24 1.3,0.55 -1.32,3.63l-4.47 2.98c-2.99,1.99 -4.85,3.98 -8.27,5.79 -0.69,-0.43 -0.35,-1.42 -3.31,0 -0.93,3 5.55,-1.62 -4.8,4.3 -1.86,1.06 -3.99,2.43 -5.12,3.97 -3.75,1 -1.98,1.4 -2.31,1.7l-2.65 1.61c-7.42,1.73 1.3,1.64 -5.37,3.79l-1.42 0.4c-2.89,1.3 -7.42,6.04 -9.07,7.24l-1.02 0.64c-0.14,0.1 -0.35,0.23 -0.49,0.34 -0.63,0.49 -1.77,1.81 -2.48,2.48 -2.23,-0.19 -2.25,-0.39 -4.13,-0.83l-1.65 -0.83c1.28,-1.74 2.34,-2.11 4.13,-3.31l0 0.83 0.97 -0.69 -0.97 -0.14c1.31,-1.78 5.3,-4.65 7.44,-5.79 -1.12,4.21 -2.82,2.86 -4.96,5.79 3.56,-0.83 6.52,-3.17 7.44,-6.62l-1.65 0c0.57,-0.5 0.2,-0.28 1.34,-1.14l5.76 -4.17c2.37,-1.63 5.16,-3.92 7.79,-4.62l0 2.48c2.18,-1.58 1.79,-0.15 0.83,-2.48l0 -0.83c1.87,-2.56 2.11,-1.11 4.13,-4.13 -3.02,0.81 -11.79,7.58 -15.05,9.75 -0.9,0.6 -1.61,1.11 -2.42,1.71 -5.23,3.87 -3.98,0.47 -7.99,4.42 -2.84,2.79 -1.46,2.52 -4.04,4.23 -1.67,1.1 -1.74,0.46 -3.53,2.26 -0.03,0.03 -0.86,1.08 -1.11,1.37 -1.66,1.88 -2.55,2.37 -3.89,4.38l1.65 0 -0.9 1.61c1.15,-0.36 0.78,0.58 1.12,-0.45 0.53,-1.6 0.4,-0.05 -0.22,-1.16 1.45,-2.17 0.42,-1.71 3.31,-2.48l0.69 0.97 1.79 -0.97c-0.25,3 -0.03,2.19 -1.94,3.85 -0.31,0.27 -0.77,0.49 -1.46,1.02 -0.87,0.67 -0.91,0.77 -1.78,1.53 -2.15,1.89 -4.71,4.5 -7.23,5.17l3.31 -4.13c2.36,-0.56 1.24,0.13 2.48,-1.65 -2.42,0.58 -1.19,-0.11 -2.48,1.65 -2.73,0.73 -0.98,0.14 -3.14,1.88 -2.83,2.29 -5.96,1.03 -7.61,7.21l-0.83 0.83 -1.65 0 0.83 1.65c-1.86,2.54 0.53,1.33 -3.31,1.65l1.77 -2.38 -3.4 0.83c1.51,-5.88 0.47,0.48 3.28,-3.41 -2.74,-0.58 -5.4,-0.25 -6.85,2.83 -0.43,0.91 2.44,3.59 -6.38,3.79 -0.11,4.73 -0.42,2.71 -2.48,5.79l3.31 -0.83c1.78,5.36 -0.12,-2.88 1.65,2.48l-3.49 3.12c-4.19,0.18 -1.05,0.18 -2.3,-0.64 2.49,-0.67 1.81,0.01 2.48,-2.48l-2.48 2.48 -1.65 0c0.9,-1.7 1.15,-1.96 1.65,-4.13l-1.65 0.83 0 -1.65 -1.65 1.65 -0.83 0 0.69 0.97 0.14 -0.97 1.65 0c-1.71,2.56 -2.47,1.84 -3.31,4.96l1.65 0c1.11,0.84 -1.74,0.83 2.48,0.83 -1.16,1.73 -2.34,3.26 -4.38,4.31 -2.09,1.08 -0.07,-0.96 -2.18,1.31 -1.56,1.67 1.13,0.88 -1.71,1.82 -1.07,-3.23 -0.62,-1.05 -3.64,1.31 -3.27,2.56 -2.03,0.92 -4.63,2l-0.83 0 -0.83 0.83c-4.27,1.14 -6.12,6.17 -11.58,7.44 0.75,-1.51 0.63,-1.04 0.83,-3.31 -2.89,1.53 -3.72,2.6 -6.62,4.13l0 -0.83 -0.97 0.69 0.97 0.14c-1.42,2.11 -4.15,3.71 -6.4,6 -2.51,2.55 -4.17,3.32 -6.64,5.77 -4.47,4.43 -8.24,8.75 -13.42,12.21 0.14,-6.33 1.4,-1.72 6.62,-11.58 -5.38,1.44 -6.56,10.19 -13.23,10.75l9.1 -9.92 0.83 -0.83 0.83 0 -0.69 -0.97 -0.14 0.97 -0.83 0.83c-4.94,1.32 -20.87,18.92 -25.04,23.75 -2,2.32 -2.24,1.22 -3.08,4.36l-0.83 0.83 -0.83 0 0.69 0.97 0.14 -0.97 0.83 -0.83 16.54 -15.71c-0.73,2.74 -14.87,17.46 -18.69,18.65 -2.5,0.78 -10.44,10.05 -12.25,12.43l-55.18 61.42c-2.14,2.64 -3.73,4.56 -5.93,7.3 -27.67,34.35 -47.7,60.21 -72.01,96.68 -2.96,4.44 -18.99,29.34 -21.17,30.93 -7.76,-11.59 -18.94,-26.83 -26.2,-39.13 -6.59,-11.17 -18.32,-23.4 -28.04,-38.11 -10.35,-15.64 -14.95,-22.52 -24.88,-40.45 -4.02,-7.25 -7.15,-11.04 -12.11,-20.96 -1.96,-3.92 -3.38,-7.35 -5.67,-10.87l-6.46 -10.08 -3.77 2.15c-1.3,0.69 0.47,-1.07 -1.03,0.73 -2.24,2.69 0.33,2.6 -4.53,5.15 -12.36,6.48 -5.78,3.18 -9.69,9.33 -0.19,-2.23 -0.39,-2.25 -0.83,-4.13 2.74,0 0.2,-1.51 0,-1.65l0 -0.83 -0.97 0.69 0.97 0.14 0 1.65c-2.51,-1.41 -0.93,-0.44 -1.65,0 0.39,4.72 1.26,1.07 1.65,5.79 -4.72,1.1 -7.32,3.38 -7.44,9.1 -2.73,-1.45 -2.6,-2.56 -4.96,-4.13l0 4.13c-2.59,-1.2 -1.57,-0.11 -4.96,-0.83 0.27,3.21 0.75,2.16 0.83,5.79 -2.38,-1.59 -1.51,-1.19 -3.5,-3.94 -0.8,-1.1 -0.75,-1.03 -1.46,-1.85 -1.13,4.87 -0.38,2 0,6.62 -1.46,-0.7 -2.68,-0.95 -4.13,-1.65l0 5.79c-6.46,-1.51 -5.48,1.57 -11.58,-1.65 -0.23,2.75 -1.67,5.99 -3.52,7.23 -4.05,2.72 -5.01,-1.6 -5.58,5.17 -4.29,-2.06 -2.11,0.18 -4.74,0.07l-3.53 -0.89c0,3.92 0.49,7.19 -0.83,9.92 -3.3,-0.88 -2.28,-2.61 -5.79,-4.96 0,26.74 26.25,60.88 40.68,82.53 14.66,21.99 29.22,49.19 42.83,69.63l21.27 30.83c3.13,4.19 5.88,7.36 8.99,11.69 9.81,13.64 23.62,34.32 37.07,44.79 13.56,10.56 26.95,17.03 46.58,13.35 13.61,-2.55 17.47,-5.51 28.5,-12.85 15.45,-10.27 8.79,-7.91 15.65,-14.94 1.58,-1.62 3.51,-4.11 4.87,-5.88 6.08,-7.96 11.4,-15.48 16.88,-24.47 25.43,-41.72 68.37,-96.45 101.11,-135.39l14.11 -16.48c2.16,-2.18 2.56,-3.27 4.53,-5.39 2.21,-2.38 2.97,-2.86 5.11,-5.64l9.77 -10.9c3.81,-3.74 6.1,-6.96 9.93,-10.74l34.76 -37.18c1.66,-1.99 3.47,-3.55 5.34,-5.41 8.02,-8.02 55.56,-56.45 61.88,-61.33 2.29,-1.77 3.08,-3.01 5.11,-4.81l28.53 -23.57c3.69,-3.28 7.61,-6.37 11.36,-9.31l24.34 -17.01c4.06,-2.74 2.03,-2.41 11.9,-8.77 5.93,-3.82 2.13,-3.56 11.68,-8.99 4.13,-2.35 8.31,-5.67 12.41,-8.27 6.27,-3.98 1.29,1.18 11.15,-6.22l3.09 -0.92c0.09,0.02 3.08,0.74 5.64,-2.75 -1.88,0.44 -1.9,0.64 -4.13,0.83 1.23,-1.07 0.36,-0.35 1.92,-1.38 0.64,-0.42 1.48,-0.94 2.03,-1.27 1.61,-0.97 2.78,-1.49 4.31,-2.3l0 1.65c0.19,-0.09 0.48,-0.42 0.56,-0.27l-0.56 -1.39 26.6 -14.72c3.21,-1.45 4.15,-0.89 7.69,-3.09 7.19,-4.48 3.33,-0.36 9.54,-4.51 1.11,0.84 -1.74,0.83 2.48,0.83 1.17,-4.4 -0.89,-0.32 8.82,-5.23 8.3,-4.2 16.41,-8.34 25.71,-9.85 2.95,-0.48 3.59,-0.14 5.16,-2.28 -5.46,0 -9.93,2.9 -14.88,3.31 1.02,-2.83 2.03,-1.26 4.13,-4.13l-25.07 7.18c-7.04,2.24 -2.42,3.86 -8.84,4.39l-1.65 -0.83c0,-2.74 -1.51,-0.2 -1.65,0 -2.4,1.61 -1.11,1.67 -4.13,2.48 -0.44,-1.24 -0.61,0.67 0.53,-1.89 0.05,-0.11 0.22,-0.38 0.29,-0.59 -2.82,1.49 -4.73,2.48 -8.27,3.31 0.51,-1.24 0.33,-1.18 0.41,-1.42 0.02,-0.07 0.12,-0.32 0.14,-0.39 0.02,-0.06 0.12,-0.3 0.14,-0.34 0.02,-0.05 0.08,-0.22 0.14,-0.33 8.39,-1.95 4.91,-2.32 14.46,-6.26 4.78,-1.97 2.43,0.65 6.86,-2.12 3.55,-2.21 3.04,-2.37 8.44,-2.37 0.1,-4.51 -1.79,-1.27 7.99,-6.9 4.73,-2.72 6.43,-1.34 10.53,-4.36 2.74,-2.02 2.52,-1.95 7.22,-2.71 8,-1.29 20.86,-5.31 29,-8.21l1.76 -0.72c0.12,-0.05 0.39,-0.16 0.56,-0.27l1.65 0 0 -1.65 -2.48 0 0.83 1.65 -2.89 -1.65c-8.8,5.27 -2.72,0.57 -9.16,1.95l-2.83 1.36 -5.79 0 0 -1.65c-6.1,1.63 2.18,0.82 -4.4,2.99 -2.7,0.89 -4.61,1.31 -7.08,2.07 -3.17,0.98 -11.09,3.78 -14.16,4.03zm-275.36 62.85l-0.83 0.83 -0.83 0 0.69 0.97 0.14 -0.97 0.83 -0.83 0.83 -0.83c2.36,-0.63 5.87,-4.2 8.5,-6.39 1.45,-1.2 1.4,-0.91 2.85,-2.11 3.03,-2.51 9.1,-6.89 10.98,-9.7l0.83 -0.83 0.83 -0.83 0.83 0 -0.69 -0.97 -0.14 0.97 -0.83 0.83 -0.83 0.83c-2.44,0.65 -2.55,1.31 -5.93,3.99 -4.31,3.41 -13.66,10.12 -16.39,14.2l-0.83 0.83zm117.42 -50.44l-0.83 0 0.83 -0.83 0 0.83zm-24.81 -16.54l1.78 -0.45 -1.78 0.45 -0.83 0 0.69 0.97 0.14 -0.97zm-62.85 61.19c1.97,-1.32 0.86,-1 3.31,-1.65 -1.41,2.11 -1.42,2.58 -4.13,3.31l0 -0.83 0.83 -0.83zm172 -81.86l-1.78 0.45 1.78 -0.45 0.83 0 -0.69 -0.97 -0.14 0.97zm-39.69 17.37l-1.78 0.45 1.78 -0.45 0.83 0 -0.69 -0.97 -0.14 0.97zm-9.92 -16.54l-1.78 0.45 1.78 -0.45 0.83 0 -0.69 -0.97 -0.14 0.97zm31.42 -3.31l0 -0.83c2.36,-0.56 1.24,0.13 2.48,-1.65 -2.42,0.58 -1.19,-0.11 -2.48,1.65l0 0.83 0 0.83 -1.78 0.45 1.78 0.37 -1.55 0.93c-1.02,1.22 -0.53,-1.35 -0.93,2.37 1.7,-0.9 1.96,-1.15 4.13,-1.65l-1.65 -1.65 0 -0.83 0 -0.83zm-191.02 113.29l-0.83 0.83 0 -0.83 0.83 0zm158.77 -113.29l0 -0.83 1.78 -0.45 -1.78 0.45 0 0.83 0 0.83 -0.83 0 0.69 0.97 0.14 -0.97 0 -0.83zm112.46 21.5l1.61 0.95 -1.61 -0.95c-0.54,-2.02 0.37,-1.12 -1.65,-1.65 0.57,2.15 -0.31,0.92 1.65,1.65zm-53.75 0l0.83 -0.83 0 0.83 -0.83 0zm32.25 -38.04l-1.78 0.45 1.78 -0.45 0.83 0 -0.69 -0.97 -0.14 0.97zm-166.21 63.67l-0.83 0 0.83 -0.83 0 0.83zm42.17 -30.6l-1.78 0.45 1.78 -0.45 0.83 0 -0.69 -0.97 -0.14 0.97zm-120.73 85.17l-0.83 0.83c-3.06,1.62 -6.47,3.79 -7.44,7.44 1.26,-0.84 2.65,-1.64 3.91,-2.71 2.4,-2.04 1.47,-1.55 4.36,-3.08l-0.83 -1.65 0.83 -0.83 0.83 0 -0.69 -0.97 -0.14 0.97zm343.17 -88.48l-1.78 0.45 1.78 -0.45c3.74,-0.08 3.29,-0.83 7.44,-0.83l0 -0.83c-4.82,0 -4.87,-0.59 -7.44,1.65zm-317.53 61.19l-0.83 0.83c-3.33,0.89 -14.06,9.94 -15.71,12.4 2.36,-0.63 4.68,-3.13 8.28,-5.78l7.44 -6.62 0.83 -0.83 0.83 0 -0.69 -0.97 -0.14 0.97zm243.94 -54.58l1.61 0.95 -1.61 -0.95c2.92,-2.03 3.27,-1.41 5.79,-0.83l0.83 -1.65c3.23,-1.55 2.13,0.25 4.13,-2.48l-3.31 0c-0.63,1.12 -0.45,0.91 -0.83,2.48 -3.34,-1.6 -7.29,0.01 -9.1,2.48l2.48 0zm-18.19 32.25c-1.81,2.17 -2.4,0.48 -3.31,-0.83l1.65 0 1.65 0.83zm-23.15 -52.1l-1.78 0.45 1.78 -0.45 0.83 0 -0.69 -0.97 -0.14 0.97zm-78.56 0.83l1.78 -0.45 -1.78 0.45 -0.83 0 0.69 0.97 0.14 -0.97zm83.52 -1.65l0 0.83 -0.83 0 0.69 0.97 0.14 -0.97 0 -0.83c-1.11,-0.84 1.74,-0.83 -2.48,-0.83l0 0.83 2.48 0zm-69.46 5.79l0.25 -0.25c-0.02,0.01 -0.33,0.16 -0.25,0.25zm22.33 6.62l0.25 -0.25c-0.02,0.01 -0.33,0.16 -0.25,0.25zm-19.85 -9.92l0.25 -0.25c-0.02,0.01 -0.33,0.16 -0.25,0.25zm-160.42 97.58l0.25 -0.25c-0.02,0.01 -0.33,0.16 -0.25,0.25zm243.11 -117.42c0.08,0.08 0.25,-0.36 0.25,-0.25l0 0c-0.02,0.01 -0.33,0.16 -0.25,0.25zm-125.69 35.56c0.08,0.08 0.25,-0.36 0.25,-0.25l0 0c-0.02,0.01 -0.33,0.16 -0.25,0.25zm158.77 -2.48c0.08,0.08 0.25,-0.36 0.25,-0.25l0 0c-0.02,0.01 -0.33,0.16 -0.25,0.25zm31.42 19.02c0.08,0.08 0.25,-0.36 0.25,-0.25 0,0.05 0.11,-0.1 0.1,-0.1 -0,0 -0.09,0.09 -0.1,0.1 -0.02,0.01 -0.33,0.16 -0.25,0.25zm-66.15 -41.35l0.02 0.37c0.77,-0.07 -1.16,1.58 0.26,-0.09 0,-0 0.1,-0.14 0.1,-0.14 0,-0 -0.01,-0.11 -0.01,-0.11l-0.37 -0.02zm-112.46 16.54l-0.83 0 0.69 0.97 0.14 -0.97c3.07,-0.72 7.49,-2.77 9.1,-4.96 2.36,-0.56 1.24,0.13 2.48,-1.65 -2.42,0.58 -1.19,-0.11 -2.48,1.65 -3.07,0.72 -7.49,2.77 -9.1,4.96zm220.78 1.65l-0.83 0 0.69 0.97 0.14 -0.97 4.13 0 0 -0.83c-0.56,0 -1.92,-0.06 -2.42,0.06 -1.58,0.37 -0.87,0.23 -1.71,0.77zm-339.86 76.9l0.83 0 -0.69 -0.97 -0.14 0.97c-3.51,1.86 -6.44,3.99 -8.27,7.44 2.98,-0.8 2.22,-1.09 4.33,-3.12 2.79,-2.69 3.02,-0.89 3.94,-4.33zm220.78 -19.85l-0.83 0 0.69 0.97 0.14 -0.97 0.83 0 -0.69 -0.97 -0.14 0.97zm100.88 -52.92l0.83 0 -0.69 -0.97 -0.14 0.97c-0.46,0 -1.35,-0.02 -1.6,0.06 -1.5,0.43 -0.88,0.23 -1.71,0.77l-3.31 0 0 0.83c0.46,0 1.35,0.02 1.6,-0.06 1.46,-0.42 0.92,-0.27 1.71,-0.77 0.46,0 1.35,0.02 1.6,-0.06 1.5,-0.43 0.88,-0.23 1.71,-0.77zm-121.56 3.31l0.83 0 -0.69 -0.97 -0.14 0.97 -0.83 0 0.69 0.97 0.14 -0.97zm92.61 16.54l0.83 0 -0.69 -0.97 -0.14 0.97 -1.82 1.49 2.65 0.17 -0.83 -1.65zm-349.78 95.09l-0.83 0 0.69 0.97 0.14 -0.97c2.85,-0.76 4.36,-2.82 5.79,-4.96l0.83 0 -0.69 -0.97 -0.14 0.97c-2.85,0.76 -4.36,2.82 -5.79,4.96zm8.27 -7.44l-0.83 0 0.69 0.97 0.14 -0.97c2.69,-0.72 3.42,-1.44 4.13,-4.13l-4.13 4.13zm210.86 -127.34l-0.83 0 0.69 0.97 0.14 -0.97c3.84,-0.32 1.45,0.89 3.31,-1.65 -3.84,0.32 -1.45,-0.89 -3.31,1.65zm91.79 20.67l1.78 -0.45 -1.78 -0.37 0.9 -1.61c-3.99,0.04 -3.43,-0.04 -4.2,3.26l3.31 -0.83zm-115.77 13.23c0,2.05 1.32,0.21 0.51,0 -0.01,-0 -0.51,-2.35 -0.51,0zm143.88 7.44l-0.9 1.61c1.15,-0.36 0.78,0.58 1.12,-0.45 0.53,-1.6 0.4,-0.05 -0.22,-1.16 -1.11,-0.84 1.74,-0.83 -2.48,-0.83 0.69,-2.57 0.12,-2.48 3.31,-2.48l0 -0.83c-3.95,0 -3.43,0.56 -6.62,0.83l0.83 1.65 1.65 2.48 3.31 -0.83zm-292.73 59.54c-0.42,2.3 1.97,-0.4 0.82,-0.33 -1.55,0.1 -0.5,-1.38 -0.82,0.33zm326.63 -66.15c0,0.97 1.78,1.86 1.28,0 -0.5,-1.87 2.1,-0.02 -0.38,-0.25 -1.04,-0.09 -0.9,-1.44 -0.9,0.25zm-44.65 -20.67c-0.41,2.2 1.65,-0.14 1.05,-0.3 -1.66,-0.44 -0.82,-0.96 -1.05,0.3zm-4.96 -6.62c0.85,0.85 2.99,-1.19 0.96,-0.45 -0.02,0.01 -2.35,-0.94 -0.96,0.45zm-89.31 -3.31c0.85,0.85 2.99,-1.19 0.96,-0.45 -0.02,0.01 -2.35,-0.94 -0.96,0.45zm86 2.48c0.85,0.85 2.99,-1.19 0.96,-0.45 -0.02,0.01 -2.35,-0.94 -0.96,0.45zm-55.4 2.48c0.85,0.85 2.99,-1.19 0.96,-0.45 -0.02,0.01 -2.35,-0.94 -0.96,0.45zm55.4 -0.83c0.85,0.85 2.99,-1.19 0.96,-0.45 -0.02,0.01 -2.35,-0.94 -0.96,0.45zm-5.79 -13.23c0.85,0.85 2.99,-1.19 0.96,-0.45 -0.02,0.01 -2.35,-0.94 -0.96,0.45zm-33.08 20.67c0.85,0.85 2.99,-1.19 0.96,-0.45 -0.02,0.01 -2.35,-0.94 -0.96,0.45zm90.13 21.5c0.85,0.85 2.99,-1.19 0.96,-0.45 -0.02,0.01 -2.35,-0.94 -0.96,0.45zm-48.79 -15.71c0.85,0.85 2.99,-1.19 0.96,-0.45 -0.02,0.01 -2.35,-0.94 -0.96,0.45zm-222.44 31.42c0.85,0.85 2.99,-1.19 0.96,-0.45 -0.02,0.01 -2.35,-0.94 -0.96,0.45zm122.38 -39.69c0.85,0.85 2.99,-1.19 0.96,-0.45 -0.02,0.01 -2.35,-0.94 -0.96,0.45zm104.19 5.79c0.85,0.85 2.99,-1.19 0.96,-0.45 -0.02,0.01 -2.35,-0.94 -0.96,0.45zm-65.33 62.85c0.85,0.85 2.99,-1.19 0.96,-0.45 -0.02,0.01 -2.35,-0.94 -0.96,0.45zm-52.1 -59.54c0.85,0.85 2.99,-1.19 0.96,-0.45 -0.02,0.01 -2.35,-0.94 -0.96,0.45zm132.31 23.98c0.85,0.85 2.99,-1.19 0.96,-0.45 -0.02,0.01 -2.35,-0.94 -0.96,0.45zm0.83 -3.31c0.85,0.85 2.99,-1.19 0.96,-0.45 -0.02,0.01 -2.35,-0.94 -0.96,0.45zm-192.67 -18.19c0.85,0.85 2.99,-1.19 0.96,-0.45 -0.02,0.01 -2.35,-0.94 -0.96,0.45zm176.96 19.02c0.85,0.85 2.99,-1.19 0.96,-0.45 -0.02,0.01 -2.35,-0.94 -0.96,0.45zm-13.23 0c0.85,0.85 2.99,-1.19 0.96,-0.45 -0.02,0.01 -2.35,-0.94 -0.96,0.45zm-56.23 -18.19c0.85,0.85 2.99,-1.19 0.96,-0.45 -0.02,0.01 -2.35,-0.94 -0.96,0.45zm109.15 -8.27c0.85,0.85 2.99,-1.19 0.96,-0.45 -0.02,0.01 -2.35,-0.94 -0.96,0.45zm-29.77 -0.83c0.85,0.85 2.99,-1.19 0.96,-0.45 -0.02,0.01 -2.35,-0.94 -0.96,0.45zm-61.19 1.65c0.85,0.85 2.99,-1.19 0.96,-0.45 -0.02,0.01 -2.35,-0.94 -0.96,0.45zm68.63 22.33l-1.65 0c0,-2.74 1.51,-0.2 1.65,0zm-1.65 0c0,2.74 1.51,0.2 1.65,0l1.65 0 0 -1.65 -4.96 0 0 1.65 1.65 0zm42.17 -8.27c-1.27,-1.83 -0.14,-1.03 -2.48,-1.65 1.3,1.88 0.16,0.97 2.48,1.65zm-91.79 -13.23c0.19,-0.09 0.48,-0.42 0.56,-0.27l1.92 -1.39c-5.11,0.44 -1.31,0.33 -2.48,1.65zm-152.15 17.37c2.36,-0.56 1.24,0.13 2.48,-1.65l14.06 -9.92c-4.15,2.19 -11.66,6.34 -14.06,9.92 -2.36,0.56 -1.24,-0.13 -2.48,1.65 -1.78,0.42 -2.86,0.82 -4.17,1.61 -2.12,1.29 -1.78,0.87 -2.44,3.35 1.84,-0.98 2.49,-1.38 4.13,-2.48l1.61 0.95c0.26,-2.68 0.03,-1.69 0.87,-3.43zm191.84 6.62c-1.11,-0.84 1.74,-0.83 -2.48,-0.83l0 0.83 2.48 0 -1.65 1.65c4.25,-0.09 2.37,0.75 4.13,-1.65l-2.48 0zm-40.52 -31.42l2.48 0 0 -0.83 -2.48 0 0 0.83zm41.35 14.06l2.48 0 0 -0.83 -2.48 0 0 0.83zm23.98 -7.44l2.48 0 0 -0.83 -2.48 0 0 0.83zm-41.35 0.83l2.48 0 0 -0.83 -2.48 0 0 0.83zm-9.1 -24.81l2.48 0 0 -0.83 -2.48 0 0 0.83zm-23.98 5.79l2.48 0 0 -0.83 -2.48 0 0 0.83zm81.86 37.21l2.48 0 0 -0.83 -2.48 0 0 0.83zm-33.08 -20.67l2.48 0 0 -0.83 -2.48 0 0 0.83zm-223.27 35.56c2.42,-0.58 1.19,0.11 2.48,-1.65 -1.45,0.35 -2.22,0.1 -2.48,1.65zm190.19 0c2.42,-0.58 1.19,0.11 2.48,-1.65 -1.45,0.35 -2.22,0.1 -2.48,1.65zm-66.15 -50.44c2.42,-0.58 1.19,0.11 2.48,-1.65 -1.45,0.35 -2.22,0.1 -2.48,1.65zm-45.48 9.1c2.42,-0.58 1.19,0.11 2.48,-1.65 -1.45,0.35 -2.22,0.1 -2.48,1.65zm-52.1 33.9c2.42,-0.58 1.19,0.11 2.48,-1.65 -1.45,0.35 -2.22,0.1 -2.48,1.65zm86.83 -24.81c2.42,-0.58 1.19,0.11 2.48,-1.65 -1.45,0.35 -2.22,0.1 -2.48,1.65zm95.09 22.33c2.42,-0.58 1.19,0.11 2.48,-1.65 -1.45,0.35 -2.22,0.1 -2.48,1.65zm-301.82 82.69c1.83,-1.27 1.03,-0.14 1.65,-2.48 -1.37,0.95 -1.59,0.18 -1.65,2.48zm305.13 -120.73c4.33,-0.37 1.49,0.79 2.48,-1.65 -1.43,0.71 -1.65,0.54 -2.48,1.65zm-275.36 103.36l2.66 -2.3c-2.07,0.33 -2.59,0.01 -2.66,2.3zm250.55 -92.61c1.7,-1.48 1.24,-1.41 4.13,-1.65 1.22,2.18 0.81,1.69 -2.48,2.48l-1.65 -0.83zm-124.86 22.33l1.65 -0.83 0 0.83 -1.65 0zm59.54 -27.29c3.84,-0.32 1.45,0.89 3.31,-1.65 -1.85,0.43 -2.34,0.36 -3.31,1.65zm-3.31 1.65c2.42,-0.58 1.19,0.11 2.48,-1.65l-2.48 0 0 1.65zm76.9 38.86c2.49,-0.67 1.81,0.01 2.48,-2.48 -3.35,1.77 -1.77,-0.28 -2.48,2.48zm25.63 -43.83c3.55,-1.88 1.5,0.22 2.48,-2.48 -1.89,0.5 -2.42,0.19 -2.48,2.48zm-291.9 109.98c2.89,-0.77 1.86,-0.31 3.31,-2.48 -2.46,0.66 -2.14,0.32 -3.31,2.48zm288.59 -99.23c3.84,-0.32 1.45,0.89 3.31,-1.65 -1.94,0.16 -3.01,-0.09 -3.31,1.65zm-326.63 122.38c1.26,-0.91 1.41,-0.15 1.43,-1.89 0.01,-1.36 0.58,-0.76 -1.43,-1.42l0 3.31zm267.92 -121.56c1.34,-0.11 0.8,0.22 2.17,-0.31 2.7,-1.05 1.14,-0.63 1.96,-1.34 -2.2,0.05 -3.81,-0.27 -4.13,1.65zm-260.48 114.11c-2.73,0.73 -4.23,2.23 -4.96,4.96l4.96 -4.96c2.79,-0.74 2.35,-1.1 4.35,-3.09 1.99,-1.99 2.35,-1.56 3.09,-4.35l-7.44 7.44zm335.72 -114.11c1.52,0.96 -2.1,0.91 2.27,0.69 2.16,-0.11 -0.25,-0.69 3.52,-0.69l0 -0.83c-2.62,0 -3.93,0.11 -5.79,0.83zm-268.75 52.1c3.19,-0.74 4.13,-1.04 4.96,-4.13 -1.46,0.98 -3.97,2.79 -4.96,4.13zm51.08 -20.86c2.42,-0 2.43,-0.2 4.32,-0.64l-0.54 -1.82c-0.02,-0.06 -0.12,-0.3 -0.14,-0.34 -0.02,-0.04 -0.09,-0.22 -0.15,-0.32l-3.49 3.12zm-65.14 41.53c3.44,-0.8 4.08,-1.59 5.79,-4.13 -2.55,0.68 -1.17,0.21 -3.21,1.75 -1.17,0.88 -1.75,1.25 -2.58,2.38zm-16.54 7.44c3.44,-0.8 4.08,-1.59 5.79,-4.13 -2.55,0.68 -1.17,0.21 -3.21,1.75 -1.17,0.88 -1.75,1.25 -2.58,2.38zm116.59 -71.94l0.83 0c2.71,-0.98 0.6,1.07 2.48,-2.48 -3.31,0.28 -3.5,0.49 -4.96,2.48l1.65 0zm-118.25 86.83c2.52,-1.33 3.3,-1.04 4.96,-3.31 -3.74,0.08 -4.2,0.11 -4.96,3.31zm169.52 -87.65c3.06,-0.26 3.69,-0.8 6.18,-2.92 0.09,-0.08 0.29,-0.26 0.44,-0.39 -3.21,0.27 -5.15,1.31 -6.62,3.31zm-8.27 4.96c3.25,-0.76 3.35,-0.38 4.13,-3.31 -3.26,0.27 -3.44,0.42 -4.13,3.31zm141.4 -9.92c2.14,2.93 0.19,1.92 3.72,0.5 2.71,-1.09 2.34,-0.26 3.73,-2.15 -2.48,0.58 -4.71,1.43 -7.44,1.65zm65.33 -5.79c1.72,2.38 0.73,0.83 5.79,0.83l0 -1.65c-2.62,0 -3.93,0.11 -5.79,0.83zm-191.02 -4.96c2.53,-0.28 3.54,-1.06 5.79,-4.13 -4.88,1.14 -5.18,1.87 -5.79,4.13zm64.5 -5.79c5.67,-1.32 5.43,-1.69 6.62,-3.31 -1.71,0.14 -2.72,0.3 -4.11,0.85 -3.61,1.43 -1.71,0.25 -2.51,2.46zm-260.48 114.11c2.93,-0.78 5.75,-4.09 7.44,-6.62 -2.93,0.78 -5.75,4.09 -7.44,6.62zm307.61 -95.92l8.21 -1.71c0.19,-0.07 0.42,-0.15 0.59,-0.24l1.95 -1.36c-3.29,0.07 -9.02,0.94 -10.75,3.31zm-117.42 -15.71c3.27,0 2.73,0.44 4.88,-0.91 1.61,-1.02 1.71,-1.6 2.57,-3.22 -2.96,0.69 -5.88,2 -7.44,4.13zm103.36 9.92c2.68,-0.22 3.9,-0.92 5.88,-1.56 3.43,-1.1 3.93,-0.17 5.69,-2.58 -6.69,1.56 -9.55,1.37 -11.58,4.13zm0.83 12.4c4.89,1.14 12.7,-1.46 14.06,-3.31 -4.88,0.41 -8.5,2.53 -10.92,2.78 -0.62,0.06 -1.6,-0.42 -3.14,0.53zm-16.54 -33.08l-1.45 1.03c-0.14,0.08 -0.42,0.16 -0.58,0.25 -2,1.19 -1.24,-0.11 -2.1,2.03 1.95,-0.45 2.44,-0.77 4.96,-0.83 1.3,3.49 -1.28,-1.33 0.49,1.16 0.34,0.47 0.93,1.11 1.16,1.32 -4.33,-0.37 -1.49,0.79 -2.48,-1.65 -5.34,3.57 -2.51,0.8 -5.44,2.82l-0.89 0.74c-3.12,1.87 -1.72,-1.19 -3.03,1.55 -0.65,1.37 -0.1,0.17 1.09,2.34 4.57,-3.06 12.32,-4.33 12.72,-5.93 0.73,-2.91 1.82,1.29 -1.14,-1.51 3.01,-0.7 2.65,-0.46 4.13,-2.48 -1.95,0.45 -2.44,0.77 -4.96,0.83l3.31 -2.48c-3.63,0.08 -2.58,0.56 -5.79,0.83 3.25,-6.14 2.58,-0.66 4.13,-4.96l-10.21 3.85c-1.23,0.53 -0.73,0.25 -1.65,0.83 -2.14,1.34 -0.08,-0.01 -1.37,1.11 3.53,-0.29 3.91,-1.36 7.44,-1.65l1.65 0.83zm-219.96 69.46c3.01,-0.8 11.72,-8.49 13.23,-10.75 -3.21,0.86 -11.64,8.37 -13.23,10.75zm0.83 19.02c-1.41,2.11 -1.42,2.58 -4.13,3.31 1.41,-2.11 1.42,-2.58 4.13,-3.31zm-9.92 2.48c3.69,-0.4 1.68,-0.05 3.34,-2.45 3.12,-4.52 8.28,-2.27 9.89,-8.3 -4.06,0.95 -7.63,4.2 -10.56,6.8 -3.31,2.94 -2.22,-0.12 -2.67,3.95zm-87.65 64.5c-0.5,2.71 1.05,1.15 -1.65,1.65l1.65 -1.65zm277.84 -145.54c4.86,-1.13 29.63,-11.69 37.72,-14.37 3.27,-1.08 3.56,-0.64 5.28,-2.99 -3.99,0.93 -7.27,2.31 -11.08,3.8 -3.53,1.38 -13.97,5.94 -16.86,5.94 -2.51,0 0.49,-0.98 -2.69,0.14 -2.36,0.83 -5.15,3.4 -7.59,3.99 -3.7,0.91 -3.76,-0.35 -4.78,3.49z"/>
 </g>
</svg>
